<svg width="542" height="542" viewBox="0 0 542 542" fill="none" xmlns="http://www.w3.org/2000/svg">
<path fill-rule="evenodd" clip-rule="evenodd" d="M271 33.875C140.039 33.875 33.875 140.039 33.875 271C33.875 401.961 140.039 508.125 271 508.125C401.961 508.125 508.125 401.961 508.125 271C508.125 140.039 401.961 33.875 271 33.875ZM0 271C0 121.331 121.331 0 271 0C420.669 0 542 121.331 542 271C542 420.669 420.669 542 271 542C121.331 542 0 420.669 0 271ZM143.139 203.018C130.383 216.302 120.866 237.193 120.866 267.183C120.866 276.537 113.283 284.12 103.929 284.12C94.5744 284.12 86.9912 276.537 86.9912 267.183C86.9912 229.709 99.0695 200.003 118.706 179.555C138.234 159.22 164.305 149.05 190.31 149.05C216.314 149.05 242.386 159.22 261.914 179.555C281.55 200.003 293.629 229.709 293.629 267.183C293.629 326.05 330.003 352.079 363.185 352.299C380.317 352.412 397.372 345.8 410.206 332.351C422.949 318.997 432.516 297.826 432.516 267.183C432.516 257.828 440.099 250.245 449.454 250.245C458.808 250.245 466.391 257.828 466.391 267.183C466.391 305.147 454.363 335.145 434.713 355.737C415.154 376.234 389.018 386.345 362.96 386.173C309.761 385.821 259.754 343.242 259.754 267.183C259.754 237.193 250.237 216.302 237.48 203.018C224.615 189.621 207.496 182.925 190.31 182.925C173.124 182.925 156.005 189.621 143.139 203.018Z" fill="#EDEFF1"/>
</svg>
