<svg width="67" height="24" viewBox="0 0 67 24" fill="none" xmlns="http://www.w3.org/2000/svg">
<path fill-rule="evenodd" clip-rule="evenodd" d="M15.2087 0.0143478C15.8589 0.100253 16.3997 0.561116 16.5923 1.1936L21.542 17.4421L28.6137 1.01674C28.885 0.386532 29.5075 -0.0152071 30.1883 0.000484591C30.869 0.0161762 31.4726 0.446175 31.7152 1.08823L38.0029 17.7343L44.8498 1.04376C45.1205 0.384046 45.7728 -0.0328993 46.4795 0.00207225C47.1863 0.037044 47.795 0.516388 48.0004 1.19966L53.1156 18.2184L57.5319 10.9478C57.8364 10.4465 58.3773 10.1409 58.96 10.1409H67V13.5211H59.898L54.0231 23.193C53.6785 23.7604 53.0359 24.0709 52.3817 23.9862C51.7275 23.9014 51.1835 23.4372 50.9921 22.8003L46.1539 6.70314L39.4864 22.9562C39.2239 23.5961 38.6012 24.0096 37.915 23.9998C37.2288 23.99 36.618 23.5588 36.3736 22.9118L30.0486 6.16736L22.8088 22.9833C22.5294 23.6321 21.8791 24.0368 21.1791 23.9973C20.479 23.9579 19.8774 23.4826 19.6714 22.8064L14.4678 5.72424L10.1304 12.7268C9.82431 13.2209 9.28752 13.5211 8.71 13.5211H0V10.1409H7.78164L13.5709 0.794409C13.9184 0.233299 14.5585 -0.0715568 15.2087 0.0143478Z" fill="#F26196"/>
</svg>
