<svg width="40" height="38" viewBox="0 0 40 38" fill="none" xmlns="http://www.w3.org/2000/svg">
<path fill-rule="evenodd" clip-rule="evenodd" d="M19.75 0C20.4842 0 21.0794 0.577723 21.0794 1.29038V5.93576L38.1706 5.93576C38.6528 5.93576 39.0971 6.18918 39.3319 6.598C39.5666 7.00682 39.5548 7.50696 39.3012 7.90498L20.8806 36.8095C20.6383 37.1897 20.2105 37.4211 19.75 37.4211C19.2895 37.4211 18.8617 37.1897 18.6194 36.8095L0.198825 7.90498C-0.0548301 7.50696 -0.0665713 7.00682 0.168143 6.598C0.402856 6.18918 0.847226 5.93576 1.32939 5.93576L18.4206 5.93576V1.29038C18.4206 0.577723 19.0158 0 19.75 0ZM12.6107 8.51652L3.71493 8.51652L8.54796 16.1002C8.80876 13.0585 10.3334 10.3653 12.6107 8.51652ZM15.716 27.348L19.75 33.6778L23.6702 27.5265C22.5013 27.9178 21.2467 28.1303 19.9409 28.1303C18.4486 28.1303 17.023 27.8528 15.716 27.348ZM31.2778 15.5891L35.7851 8.51653L27.2711 8.51653C29.42 10.261 30.8987 12.7575 31.2778 15.5891ZM19.9296 8.51653H19.9522C24.7928 8.52245 28.7149 12.3331 28.7149 17.033C28.7149 21.7366 24.7867 25.5496 19.9409 25.5496C15.0952 25.5496 11.1669 21.7366 11.1669 17.033C11.1669 12.3331 15.0891 8.52244 19.9296 8.51653Z" fill="#F26196"/>
</svg>
