<svg width="470" height="470" viewBox="0 0 470 470" fill="none" xmlns="http://www.w3.org/2000/svg">
<path fill-rule="evenodd" clip-rule="evenodd" d="M235 29.375C121.436 29.375 29.375 121.436 29.375 235C29.375 348.564 121.436 440.625 235 440.625C348.564 440.625 440.625 348.564 440.625 235C440.625 121.436 348.564 29.375 235 29.375ZM0 235C0 105.213 105.213 0 235 0C364.787 0 470 105.213 470 235C470 364.787 364.787 470 235 470C105.213 470 0 364.787 0 235ZM237.938 82.25C246.049 82.25 252.625 88.8258 252.625 96.9375V210L362.732 174.948C370.462 172.487 378.722 176.759 381.183 184.488C383.644 192.218 379.372 200.478 371.643 202.939L262.173 237.788L337.777 337.766C342.67 344.236 341.392 353.447 334.922 358.34C328.451 363.233 319.24 361.954 314.348 355.484L238.137 254.705L164.607 355.293C159.82 361.841 150.631 363.269 144.082 358.482C137.534 353.695 136.106 344.506 140.893 337.957L214.038 237.896L104.232 202.939C96.5026 200.478 92.2314 192.218 94.6921 184.488C97.1527 176.759 105.413 172.487 113.143 174.948L223.25 210V96.9375C223.25 88.8258 229.826 82.25 237.938 82.25Z" fill="#E0E2E4"/>
</svg>
