<svg width="32" height="32" viewBox="0 0 32 32" fill="none" xmlns="http://www.w3.org/2000/svg">
<path d="M15.9787 22.42C19.44 22.42 22.2533 19.6053 22.2533 16.144C22.2533 14.2653 21.4227 12.5787 20.112 11.4267C19.6507 11.0227 19.132 10.6853 18.568 10.4293C17.7773 10.0693 16.9027 9.868 15.98 9.868C15.0573 9.868 14.1813 10.0693 13.392 10.4293C12.8267 10.688 12.3067 11.0253 11.848 11.428C10.5347 12.58 9.704 14.2667 9.704 16.1453C9.704 19.6053 12.52 22.42 15.9787 22.42ZM16 11.508C18.5613 11.508 20.6387 13.584 20.6387 16.1453C20.6387 18.7067 18.5613 20.784 16 20.784C13.4387 20.784 11.3613 18.708 11.3613 16.1453C11.3613 13.584 13.4387 11.508 16 11.508ZM22.964 12H32V25.704C32 29.1813 29.1813 32 25.704 32H6.38C2.90267 32 0 29.1813 0 25.704V12H8.996C8.27067 13.2173 7.83333 14.6253 7.83333 16.1453C7.83333 20.644 11.48 24.2907 15.9787 24.2907C20.4773 24.2907 24.124 20.644 24.124 16.1453C24.1253 14.6253 23.688 13.2173 22.964 12ZM25.704 0H9.33333V6.66667H8V0H6.66667V6.66667H5.33333V0.102667C4.872 0.178667 4.424 0.293333 4 0.462667V6.66667H2.66667V1.19733C1.064 2.34 0 4.192 0 6.296V10.6667H9.964C11.52 8.95733 13.6947 8 15.9787 8C18.2747 8 20.4467 8.96667 21.9933 10.6667H32V6.296C32 2.81867 29.1813 0 25.704 0V0ZM29.3333 7.02C29.3333 7.56133 28.8893 8 28.34 8H24.992C24.444 8 24 7.56133 24 7.02V3.64667C24 3.10533 24.444 2.66667 24.992 2.66667H28.34C28.8893 2.66667 29.3333 3.10533 29.3333 3.64667V7.02Z" fill="#767676"/>
</svg>
