<svg xmlns="http://www.w3.org/2000/svg" xmlns:xlink="http://www.w3.org/1999/xlink" height="149.42" width="195.86" xmlns:v="https://vecta.io/nano"><defs><clipPath id="A"><path d="M0 112.06h146.9V0H0z"/></clipPath><path id="B" d="M49.37 11.72v6.26c0 .2.1.3.3.3h.56c.2 0 .3-.1.3-.3v-6.26c0-.2-.1-.3-.3-.3h-.56c-.2 0-.3.1-.3.3m0 8.08v.56c0 .2.1.3.3.3h.56c.2 0 .3-.1.3-.3v-.56c0-.2-.1-.3-.3-.3h-.56c-.2 0-.3.1-.3.3"/><path id="C" d="M66.3 14.8v.46c0 .15.1.23.3.23h3.1c.2 0 .3-.08.3-.23v-.46c0-.15-.1-.23-.3-.23h-3.1c-.2 0-.3.08-.3.23"/></defs><g clip-path="url(#A)" transform="matrix(1.3333 0 0 -1.3333 0 149.416)"><g fill="#ec6a31"><path d="M107.15 30.86c-1.4 0-2.12.7-2.12 2.12v43.07c0 1.4.7 2.12 2.12 2.12h4.05c1.4 0 2.12-.7 2.12-2.12V32.98c0-1.4-.7-2.12-2.12-2.12zm0 51.3c-1.4 0-2.12.7-2.12 2.12v3.92c0 1.4.7 2.12 2.12 2.12h4.05c1.4 0 2.12-.7 2.12-2.12v-3.92c0-1.4-.7-2.12-2.12-2.12z"/></g><path d="M83.65 90.32c-1.1 0-2.02-.9-2.02-2.02V76.98l.1-2.84h-.1c-1.73 2.04-3.68 3.66-5.85 4.83s-5.07 1.77-8.7 1.77c-6.3 0-11.08-2.53-14.35-7.6s-4.9-10.94-4.9-17.6 1.64-12.53 4.9-17.6 8.06-7.6 14.35-7.6c3.62 0 6.5.6 8.7 1.77a20.4 20.4 0 0 1 5.85 4.84v-3.72c0-1.4.56-2.1 1.67-2.1h3.9a2.1 2.1 0 0 1 2.09 2.09v55c0 1.15-.93 2.1-2.1 2.1zM81.63 50.2c0-4.65-1.13-8.1-3.4-10.4a11.5 11.5 0 0 0-8.52-3.42c-4.8 0-8.22 1.77-10.23 5.3s-3 8.15-3 13.86 1 10.32 3 13.86 5.42 5.3 10.23 5.3a11.5 11.5 0 0 0 8.52-3.42c2.26-2.28 3.4-5.74 3.4-10.4z" fill="#575756"/><path d="M62 93.84h52.7l-89.03 18.22-7.15-18.22z" fill="#ec6a31"/><g fill="#575756"><path d="M35.97 76c-2.8 3.37-7.46 5.06-14.02 5.06-2.42 0-4.8-.28-7.13-.83-.7-.17-1.32-.37-1.96-.55L9.07 70c.9.88 1.8 1.67 2.75 2.28 1.24.8 2.6 1.44 4.12 1.93s3.5.73 6.02.73c3.95 0 6.6-1.08 7.93-3.22a14.2 14.2 0 0 0 2-7.65v-3.2C21.5 60.43 13.7 58.9 8.5 56.3S.63 49.62.63 44.04c0-4.4 1.4-7.82 4.16-10.28s6.74-3.7 11.88-3.7c2.92 0 5.56.38 7.93 1.15a23.9 23.9 0 0 1 7.27 4.07v-2.3c0-1.4.62-2.12 1.86-2.12H38c1.43 0 2.14.7 2.14 2.12v29.17c0 5.86-1.4 10.48-4.2 13.86m-4.1-35.17c-2.3-2-4.52-3.25-6.68-3.7a33.7 33.7 0 0 0-6.87-.7 19.7 19.7 0 0 0-4.52.5 5.5 5.5 0 0 0-3.4 2.26c-.83 1.18-1.18 2.7-1.18 4.65a7.7 7.7 0 0 0 2.54 5.67c1.7 1.65 3.9 2.8 6.6 3.48s7.2 1.25 13.55 1.72zm96.38 50.63v-60.6h8.28v68.26zM2.27 12.9c.28-.5.74-.74 1.4-.74.47 0 .86.16 1.17.48s.47.8.47 1.46v1.5c0 .65-.16 1.14-.47 1.46s-.7.48-1.17.48c-.66 0-1.13-.25-1.4-.74s-.4-1.14-.4-1.94.14-1.45.4-1.94m-.95 4.4a2.2 2.2 0 0 0 1.98 1.07c.5 0 .9-.08 1.2-.25s.57-.4.8-.68h.01v.4 2.9c0 .2.1.3.3.3h.56c.2 0 .3-.1.3-.3v-9.03c0-.2-.1-.3-.3-.3H5.6c-.16 0-.24.1-.25.3l-.04.52H5.3c-.24-.3-.5-.5-.8-.68s-.7-.25-1.2-.25a2.2 2.2 0 0 0-1.98 1.06 4.5 4.5 0 0 0-.68 2.47 4.5 4.5 0 0 0 .68 2.47m11.48-2.06c-.02.6-.17 1.14-.47 1.6s-.73.7-1.3.7a1.8 1.8 0 0 1-1.28-.5c-.35-.33-.56-.93-.62-1.78zm-4.06 2.16c.54.64 1.3.96 2.3.96.83 0 1.53-.3 2.08-.88s.82-1.52.82-2.8c0-.2-.1-.3-.27-.3H9.13c.07-.84.3-1.42.68-1.75a1.9 1.9 0 0 1 1.28-.49c.5 0 .9.08 1.16.25s.47.34.6.5c.14.18.27.22.4.1l.38-.33c.1-.1.1-.2 0-.36-.08-.13-.32-.33-.7-.6s-1-.42-1.83-.42c-1.1 0-1.9.32-2.4.96s-.77 1.5-.77 2.57.27 1.93.8 2.57m11.15-5.68v8.13c0 .1.02.17.07.25l.46.83c.08.15.15.23.2.23h.23c.13 0 .2-.08.2-.23v-9.2c0-.2-.1-.3-.3-.3h-.56c-.2 0-.3.1-.3.3m3.98.85c.1-.16.27-.27.47-.3s.4-.07.63-.07a4.5 4.5 0 0 1 .95.1c.3.07.6.24.93.5v1.92l-1.88-.24a1.9 1.9 0 0 1-.9-.48c-.22-.23-.35-.5-.35-.8 0-.27.06-.48.17-.65m-.27 2.37c.72.36 1.8.57 3.24.63V16c0 .4-.1.76-.28 1.06s-.55.45-1.1.45a2.8 2.8 0 0 1-.83-.1c-.2-.07-.4-.16-.57-.27s-.34-.25-.5-.43c-.12-.13-.23-.14-.33-.02l-.34.4c-.1.1-.06.24.1.4.23.22.45.38.67.5s.5.2.8.28a4 4 0 0 0 1 .1c.9 0 1.55-.23 1.94-.7s.58-1.1.58-1.92V11.7c0-.2-.1-.3-.3-.3h-.6c-.17 0-.25.1-.25.3v.32h-.01a3.3 3.3 0 0 0-1.01-.56 3.8 3.8 0 0 0-1.1-.16c-.7 0-1.26.17-1.64.5s-.58.8-.58 1.42c0 .77.36 1.34 1.08 1.7m10.5-2.25l.34.5c.12.17.3.16.57-.04a5.1 5.1 0 0 1 1.07-.63 3.4 3.4 0 0 1 1.35-.25c.4 0 .72.06 1 .18s.48.3.65.5a1.3 1.3 0 0 1 .24.8c0 .23-.03.44-.1.63s-.17.35-.32.48-.3.23-.46.3a10.2 10.2 0 0 1-1.2.42 10.4 10.4 0 0 0-1.38.52c-.4.2-.7.4-.94.68a1.9 1.9 0 0 0-.46.82c-.06.28-.1.6-.1.96 0 .55.16 1.03.48 1.43s.72.66 1.18.8.94.2 1.42.2a4.2 4.2 0 0 0 1.44-.22c.4-.15.77-.33 1.1-.56.23-.16.28-.33.16-.5l-.33-.48c-.1-.14-.3-.1-.6.1a4.5 4.5 0 0 1-.81.44c-.32.14-.64.2-.95.2-.4 0-.73-.05-1-.14s-.47-.25-.63-.47-.23-.48-.23-.77c0-.18.02-.35.05-.5s.12-.3.27-.47.32-.28.52-.37a10.7 10.7 0 0 1 1.27-.41 7 7 0 0 0 1.5-.58 2.6 2.6 0 0 0 .86-.67 2.8 2.8 0 0 0 .41-.76c.1-.27.15-.58.15-.92 0-.62-.16-1.13-.48-1.54s-.7-.7-1.13-.86-.98-.24-1.64-.24a6.2 6.2 0 0 0-1.95.27 3.4 3.4 0 0 0-1.16.63c-.23.2-.3.4-.18.55m12.67 2.55c-.02.6-.17 1.14-.47 1.6s-.73.7-1.3.7a1.8 1.8 0 0 1-1.28-.5c-.35-.33-.56-.93-.62-1.78zm-4.06 2.16c.54.64 1.3.96 2.3.96.83 0 1.53-.3 2.08-.88s.82-1.52.82-2.8c0-.2-.1-.3-.27-.3h-4.54c.07-.84.3-1.42.68-1.75a1.9 1.9 0 0 1 1.28-.49c.5 0 .9.08 1.16.25s.47.34.6.5c.14.18.27.22.4.1l.38-.33c.1-.1.1-.2 0-.36-.08-.13-.32-.33-.7-.6s-1-.42-1.83-.42c-1.1 0-1.9.32-2.4.96s-.77 1.5-.77 2.57.27 1.93.8 2.57"/><use xlink:href="#B" /><path d="M52.36 11.72v6.26c0 .2.1.3.3.3h.55c.2 0 .3-.1.3-.3v-.52h.03c.28.3.6.55.9.7s.73.23 1.22.23c.8 0 1.36-.22 1.7-.67s.52-1.05.52-1.83v-4.16c0-.2-.1-.3-.3-.3h-.56c-.2 0-.3.1-.3.3v3.85c0 .85-.14 1.4-.42 1.62a1.7 1.7 0 0 1-1.08.34c-.56 0-1-.17-1.28-.5s-.44-.9-.44-1.73v-3.58c0-.2-.1-.3-.3-.3h-.56c-.2 0-.3.1-.3.3m11.86 3.53c-.02.6-.17 1.14-.47 1.6s-.73.7-1.3.7a1.8 1.8 0 0 1-1.28-.5c-.35-.33-.56-.93-.62-1.78zm-4.06 2.16c.54.64 1.3.96 2.3.96.83 0 1.53-.3 2.07-.88s.82-1.52.82-2.8c0-.2-.1-.3-.27-.3h-4.54c.07-.84.3-1.42.68-1.75a1.9 1.9 0 0 1 1.28-.49c.5 0 .9.08 1.16.25s.47.34.6.5c.14.18.27.22.4.1l.38-.33c.1-.1.1-.2 0-.36-.08-.13-.32-.33-.7-.6s-1-.42-1.83-.42c-1.1 0-1.9.32-2.4.96s-.77 1.5-.77 2.57.27 1.93.8 2.57"/><use xlink:href="#C" /><path d="M71.1 12.68l.34.5c.12.17.3.16.57-.04a5.1 5.1 0 0 1 1.07-.63 3.4 3.4 0 0 1 1.35-.25c.4 0 .72.06 1 .18a1.6 1.6 0 0 1 .65.5 1.3 1.3 0 0 1 .24.8c0 .23-.03.44-.1.63s-.17.35-.32.48-.3.23-.46.3a9.6 9.6 0 0 1-1.2.42 10.4 10.4 0 0 0-1.39.52 2.7 2.7 0 0 0-.93.68c-.23.28-.4.54-.46.82s-.1.6-.1.96c0 .55.16 1.03.48 1.43s.72.66 1.18.8.94.2 1.42.2a4.2 4.2 0 0 0 1.44-.22c.4-.15.77-.33 1.1-.56.22-.16.28-.33.16-.5l-.33-.48c-.1-.14-.3-.1-.6.1a4.5 4.5 0 0 1-.81.44c-.32.14-.64.2-.95.2-.4 0-.73-.05-1-.14s-.47-.25-.63-.47-.23-.48-.23-.77c0-.18.02-.35.05-.5s.12-.3.27-.47.32-.28.52-.37a10.7 10.7 0 0 1 1.27-.41 7 7 0 0 0 1.5-.58 2.6 2.6 0 0 0 .86-.67 2.8 2.8 0 0 0 .41-.76c.1-.27.15-.58.15-.92 0-.62-.16-1.13-.48-1.54a2.5 2.5 0 0 0-1.13-.86c-.43-.16-.98-.24-1.64-.24a6.2 6.2 0 0 0-1.95.27 3.4 3.4 0 0 0-1.16.63c-.23.2-.3.4-.18.55m9.15-.13c.1-.16.27-.27.47-.3s.4-.07.63-.07a4.5 4.5 0 0 1 .95.1c.3.07.6.24.92.5v1.92l-1.88-.24a1.9 1.9 0 0 1-.9-.48c-.22-.23-.35-.5-.35-.8 0-.27.06-.48.17-.65m-.27 2.37c.72.36 1.8.57 3.24.63V16c0 .4-.1.76-.28 1.06s-.55.45-1.1.45a2.8 2.8 0 0 1-.83-.1c-.2-.07-.4-.16-.57-.27s-.34-.25-.5-.43c-.12-.13-.23-.14-.33-.02l-.34.4c-.1.1-.06.24.1.4.23.22.45.38.67.5a3.7 3.7 0 0 0 .81.28 4.1 4.1 0 0 0 1 .1c.9 0 1.55-.23 1.94-.7s.58-1.1.58-1.92V11.7c0-.2-.1-.3-.3-.3h-.6c-.17 0-.25.1-.25.3v.32h-.01a3.3 3.3 0 0 0-1.01-.56 3.8 3.8 0 0 0-1.1-.16c-.7 0-1.26.17-1.64.5a1.8 1.8 0 0 0-.58 1.42c0 .77.36 1.34 1.08 1.7m6.25-3.2v6.26c0 .2.1.3.3.3h.56c.2 0 .3-.1.3-.3v-6.26c0-.2-.1-.3-.3-.3h-.56c-.2 0-.3.1-.3.3m0 8.08v.56c0 .2.1.3.3.3h.56c.2 0 .3-.1.3-.3v-.56c0-.2-.1-.3-.3-.3h-.56c-.2 0-.3.1-.3.3m2.98-8.08v6.26c0 .2.1.3.3.3h.55c.2 0 .3-.1.3-.3v-.52h.03c.28.3.6.55.9.7s.73.23 1.22.23c.8 0 1.36-.22 1.7-.67a2.9 2.9 0 0 0 .52-1.83v-4.16c0-.2-.1-.3-.3-.3h-.56c-.2 0-.3.1-.3.3v3.85c0 .85-.14 1.4-.42 1.62a1.7 1.7 0 0 1-1.08.34c-.56 0-1-.17-1.28-.5s-.44-.9-.44-1.73v-3.58c0-.2-.1-.3-.3-.3h-.56c-.2 0-.3.1-.3.3m6.74 5.9v.4c0 .15.1.23.3.23h.77v.6c0 .1.02.17.06.25l.46.83c.08.15.15.23.2.23h.23c.13 0 .2-.08.2-.23v-1.66h1.4c.2 0 .3-.08.3-.23v-.4c0-.15-.1-.23-.3-.23h-1.4v-4.15c0-.46.07-.75.2-.9s.3-.2.5-.2c.15 0 .32.04.53.13a2.3 2.3 0 0 1 .43.22c.08.06.14.04.18-.06l.2-.5c.04-.1.01-.16-.08-.2-.17-.1-.42-.2-.74-.3s-.65-.14-.98-.14c-.45 0-.8.16-1.04.5s-.36.8-.36 1.38v4.22h-.77c-.2 0-.3.08-.3.23m4.06-2.85v.46c0 .15.1.23.3.23h3.1c.2 0 .3-.08.3-.23v-.46c0-.15-.1-.23-.3-.23h-3.1c-.2 0-.3.08-.3.23m7.85-2.3c1.43 0 2.4.3 2.9.9s.75 1.5.75 2.7-.25 2.1-.75 2.7-1.46.9-2.9.9h-1.42v-7.2zm-2.67-.7v8.63c0 .24.1.36.33.36h2.4c1.84 0 3.12-.4 3.84-1.22s1.08-1.96 1.08-3.44-.36-2.63-1.08-3.45-2-1.23-3.84-1.23h-2.4c-.22 0-.33.12-.33.36m13.64 3.45c-.02.6-.17 1.14-.47 1.6s-.73.7-1.3.7a1.8 1.8 0 0 1-1.28-.5c-.35-.33-.56-.93-.63-1.78zm-4.06 2.16c.54.64 1.3.96 2.3.96.83 0 1.52-.3 2.07-.88s.82-1.52.82-2.8c0-.2-.1-.3-.27-.3h-4.54c.07-.84.3-1.42.68-1.75a1.9 1.9 0 0 1 1.28-.49c.5 0 .9.08 1.16.25s.47.34.6.5c.14.18.27.22.4.1l.38-.33c.1-.1.1-.2 0-.36-.08-.13-.32-.33-.7-.6s-1-.42-1.83-.42c-1.1 0-1.9.32-2.4.96s-.77 1.5-.77 2.57.27 1.93.8 2.57m6.73-5.68v6.26c0 .2.1.3.3.3h.55c.2 0 .3-.1.3-.3v-.52h.03c.28.3.6.55.9.7s.73.23 1.22.23c.8 0 1.36-.22 1.7-.67a2.9 2.9 0 0 0 .52-1.83v-4.16c0-.2-.1-.3-.3-.3h-.56c-.2 0-.3.1-.3.3v3.85c0 .85-.14 1.4-.42 1.62s-.64.34-1.07.34c-.56 0-1-.17-1.28-.5s-.44-.9-.44-1.73v-3.58c0-.2-.1-.3-.3-.3h-.56c-.2 0-.3.1-.3.3m7.36-.01v6.26c0 .2.1.3.3.3h.56c.2 0 .3-.1.3-.3v-6.26c0-.2-.1-.3-.3-.3h-.56c-.2 0-.3.1-.3.3m0 8.08v.56c0 .2.1.3.3.3h.56c.2 0 .3-.1.3-.3v-.56c0-.2-.1-.3-.3-.3h-.56c-.2 0-.3.1-.3.3m2.53-7.38l.3.4c.1.13.24.12.42-.02a3.3 3.3 0 0 1 .86-.47 3.1 3.1 0 0 1 1.08-.18c.24 0 .45.03.64.1s.35.17.5.33.2.38.2.64c0 .16-.03.3-.1.44s-.17.25-.3.34-.28.15-.4.2a5.7 5.7 0 0 1-.66.21l-.86.25a2.5 2.5 0 0 0-.68.32c-.2.14-.4.32-.56.56s-.24.56-.24.97c0 .42.13.78.38 1.1s.58.5.97.62a4.1 4.1 0 0 0 1.13.17c.54 0 .97-.06 1.3-.2a4.8 4.8 0 0 0 .85-.44c.14-.1.16-.2.06-.34l-.3-.4c-.1-.13-.23-.12-.42.01-.16.1-.4.22-.7.32a2.5 2.5 0 0 1-.78.15c-.27 0-.5-.03-.7-.1s-.35-.17-.48-.3a.8.8 0 0 1-.18-.52c0-.15.02-.3.07-.4s.14-.23.27-.33.3-.18.55-.24l1-.26a4.9 4.9 0 0 0 .82-.29c.32-.15.56-.3.73-.5s.3-.37.35-.58.1-.44.1-.7c0-.47-.14-.86-.4-1.18s-.58-.53-.92-.64a4.1 4.1 0 0 0-1.22-.16 4.5 4.5 0 0 0-1.67.28 3.1 3.1 0 0 0-.89.47c-.14.13-.16.24-.1.35"/></g></g></svg>