<svg width="258" height="86" viewBox="0 0 258 86" fill="none" xmlns="http://www.w3.org/2000/svg">
	<title>Logo INDéLEC</title>
	<desc>Logo de l'entreprise INDéLEC</desc>
	<path d="M30.5358 3.67413H18.6446V18.9128H22.684L43.1081 53.546L55.6865 53.3352V40.3673H52.1729L30.5358 3.67413Z" fill="#F01967"/>
	<path d="M22.1402 20.7197H18.6446V53.546H31.701V36.9401L22.1402 20.7197Z" fill="#F01967"/>
	<path d="M55.6865 38.5543V3.67413H41.5247L41.4709 19.4789L52.7167 38.5543H55.6865Z" fill="#F01967"/>
	<path d="M226.477 40.5721H221.249V53.546H234.096L226.477 40.5721Z" fill="#F01967"/>
	<path d="M257.998 19.1175V3.87892H221.249V38.7651H227.29L235.972 53.546H257.998V40.5721H235.423V19.1175H257.998Z" fill="#F01967"/>
	<path d="M186.047 40.3673H180.436V53.3352H194.036L186.047 40.3673Z" fill="#F01967"/>
	<path d="M218.01 18.9128V3.67413H180.436V38.5543H186.836L195.937 53.3352H218.01V40.3673H195.435V38.5543H206.77V26.1647H195.076V18.9128H218.01Z" fill="#F01967"/>
	<path d="M144.368 40.3673H140.006V53.3352H152.435L144.368 40.3673Z" fill="#F01967"/>
	<path d="M153.63 40.3673V3.67413H140.006V38.5543H145.151L154.341 53.3352H176.361V40.3673H153.63Z" fill="#F01967"/>
	<path d="M74.4435 40.3673V38.5603H93.0093C93.9974 35.4112 94.4815 32.1235 94.4434 28.8209C94.4434 9.22148 80.1501 3.88494 74.4435 3.88494H60.4011V53.552H74.4435C78.8056 53.552 88.1871 50.5404 92.34 40.3733L74.4435 40.3673Z" fill="#F01967"/>
	<path d="M135.818 38.5543C135.776 36.4101 134.879 13.9918 116.403 13.9918C97.3594 13.9918 96.6364 37.6569 96.6125 38.5543H135.818Z" fill="#F01967"/>
	<path d="M111.701 41.2828C111.7 40.9766 111.72 40.6708 111.76 40.3673H96.6125V44.8184C96.6125 50.7031 103.281 53.3352 105.994 53.3352H135.818V43.5716H112.316C112.316 43.5716 111.701 43.0838 111.701 41.2828Z" fill="#F01967"/>
	<path d="M14.5036 3.67413H0.00113061V18.9128H14.5036V3.67413Z" fill="#F01967"/>
	<path d="M14.5036 20.7197H0.00113061V53.3352H14.5036V20.7197Z" fill="#F01967"/>
	<path d="M107.058 9.17931L122.863 9.24557V0L107.058 9.17931Z" fill="#F01967"/>
	<path d="M257.998 59.9125H0.00113061V63.5264H257.998V59.9125Z" fill="#F01967"/>
	<path d="M0.00112949 83.8245V71.3866C-0.00175316 71.3622 0.000899174 71.3374 0.00888877 71.3142C0.0168784 71.291 0.0299987 71.2698 0.0472566 71.2524C0.0645145 71.235 0.0854624 71.2218 0.108524 71.2138C0.131586 71.2057 0.15616 71.203 0.180395 71.2059H1.56073C1.58496 71.203 1.60954 71.2057 1.6326 71.2138C1.65566 71.2218 1.67661 71.235 1.69387 71.2524C1.71112 71.2698 1.72424 71.291 1.73223 71.3142C1.74022 71.3374 1.74287 71.3622 1.73999 71.3866V82.4151C1.73907 82.4248 1.74029 82.4346 1.74356 82.4438C1.74684 82.453 1.75209 82.4613 1.75894 82.4682C1.7658 82.4752 1.77408 82.4804 1.7832 82.4837C1.79232 82.487 1.80205 82.4883 1.8117 82.4874H8.07399C8.19349 82.4874 8.25325 82.5476 8.25325 82.6741V83.8245C8.25613 83.8489 8.25348 83.8737 8.24549 83.8969C8.2375 83.9202 8.22438 83.9413 8.20712 83.9587C8.18987 83.9761 8.16892 83.9893 8.14586 83.9974C8.1228 84.0054 8.09822 84.0081 8.07399 84.0052H0.180395C0.15616 84.0081 0.131586 84.0054 0.108524 83.9974C0.0854624 83.9893 0.0645145 83.9761 0.0472566 83.9587C0.0299987 83.9413 0.0168784 83.9202 0.00888877 83.8969C0.000899174 83.8737 -0.00175316 83.8489 0.00112949 83.8245Z" fill="#F01967"/>
	<path d="M11.8565 71.2722C11.8701 71.296 11.8773 71.323 11.8773 71.3505C11.8773 71.378 11.8701 71.405 11.8565 71.4288L10.4462 74.9343C10.4354 74.9783 10.4099 75.0172 10.374 75.0446C10.3381 75.072 10.294 75.0862 10.2491 75.0849H9.2153C9.18984 75.0866 9.16433 75.0826 9.14057 75.0733C9.11682 75.0639 9.0954 75.0493 9.07787 75.0307C9.06712 75.007 9.06156 74.9814 9.06156 74.9554C9.06156 74.9294 9.06712 74.9037 9.07787 74.8801L10.1295 71.3505C10.1441 71.3056 10.1733 71.2669 10.2123 71.2407C10.2513 71.2145 10.2979 71.2023 10.3447 71.2059H11.7429C11.7654 71.2084 11.7871 71.2155 11.8067 71.2269C11.8262 71.2383 11.8432 71.2538 11.8565 71.2722Z" fill="#F01967"/>
	<path d="M14.2586 83.8245V71.3866C14.2557 71.3622 14.2584 71.3374 14.2664 71.3142C14.2743 71.291 14.2875 71.2698 14.3047 71.2524C14.322 71.235 14.3429 71.2218 14.366 71.2138C14.389 71.2057 14.4136 71.203 14.4379 71.2059H15.8182C15.8424 71.203 15.867 71.2057 15.8901 71.2138C15.9131 71.2218 15.9341 71.235 15.9513 71.2524C15.9686 71.2698 15.9817 71.291 15.9897 71.3142C15.9977 71.3374 16.0003 71.3622 15.9975 71.3866V83.8245C16.0003 83.8489 15.9977 83.8737 15.9897 83.8969C15.9817 83.9202 15.9686 83.9413 15.9513 83.9587C15.9341 83.9761 15.9131 83.9893 15.8901 83.9974C15.867 84.0054 15.8424 84.0081 15.8182 84.0052H14.4379C14.4136 84.0081 14.389 84.0054 14.366 83.9974C14.3429 83.9893 14.322 83.9761 14.3047 83.9587C14.2875 83.9413 14.2743 83.9202 14.2664 83.8969C14.2584 83.8737 14.2557 83.8489 14.2586 83.8245Z" fill="#F01967"/>
	<path d="M27.4464 71.2059H28.8268C28.851 71.203 28.8756 71.2057 28.8986 71.2138C28.9217 71.2218 28.9427 71.235 28.9599 71.2524C28.9772 71.2698 28.9903 71.291 28.9983 71.3142C29.0063 71.3374 29.0089 71.3622 29.006 71.3866V83.8245C29.0089 83.8489 29.0063 83.8737 28.9983 83.8969C28.9903 83.9202 28.9772 83.9413 28.9599 83.9587C28.9427 83.9761 28.9217 83.9893 28.8986 83.9974C28.8756 84.0054 28.851 84.0081 28.8268 84.0052H27.5002C27.4568 84.0037 27.4144 83.9913 27.3769 83.9692C27.3393 83.9472 27.3078 83.9161 27.2851 83.8787L21.6024 74.5127C21.6024 74.4765 21.6024 74.4585 21.5487 74.4645C21.4949 74.4705 21.5128 74.4645 21.5128 74.5307V83.8004C21.5157 83.8248 21.513 83.8496 21.505 83.8728C21.4971 83.8961 21.4839 83.9172 21.4667 83.9346C21.4494 83.952 21.4285 83.9652 21.4054 83.9733C21.3824 83.9813 21.3578 83.984 21.3335 83.9811H19.9711C19.9469 83.984 19.9223 83.9813 19.8993 83.9733C19.8762 83.9652 19.8553 83.952 19.838 83.9346C19.8207 83.9172 19.8076 83.8961 19.7996 83.8728C19.7916 83.8496 19.789 83.8248 19.7919 83.8004V71.3866C19.789 71.3622 19.7916 71.3374 19.7996 71.3142C19.8076 71.291 19.8207 71.2698 19.838 71.2524C19.8553 71.235 19.8762 71.2218 19.8993 71.2138C19.9223 71.2057 19.9469 71.203 19.9711 71.2059H21.3156C21.3591 71.2075 21.4014 71.2198 21.439 71.2419C21.4765 71.264 21.508 71.2951 21.5307 71.3324L27.1895 80.6804C27.1895 80.7165 27.2254 80.7286 27.2493 80.7226C27.2732 80.7165 27.2851 80.7226 27.2851 80.6623V71.3866C27.2826 71.3638 27.2849 71.3407 27.2918 71.3188C27.2988 71.297 27.3103 71.2769 27.3255 71.2598C27.3408 71.2427 27.3594 71.2291 27.3803 71.2198C27.4011 71.2105 27.4237 71.2058 27.4464 71.2059Z" fill="#F01967"/>
	<path d="M32.6152 83.8245V71.3866C32.6152 71.2662 32.675 71.2059 32.8005 71.2059H37.1865C38.2699 71.1545 39.3339 71.5085 40.1742 72.1998C40.546 72.5315 40.8397 72.9426 41.034 73.4031C41.2283 73.8636 41.3184 74.362 41.2976 74.862V80.3491C41.3184 80.8491 41.2283 81.3475 41.034 81.8081C40.8397 82.2686 40.546 82.6797 40.1742 83.0114C39.3339 83.7027 38.2699 84.0566 37.1865 84.0052H32.8005C32.675 84.0052 32.6152 83.945 32.6152 83.8245ZM34.4079 82.4874H37.2343C37.5436 82.5025 37.8527 82.4524 38.1418 82.3404C38.4309 82.2284 38.6937 82.0569 38.9134 81.8369C39.1299 81.6042 39.2985 81.3306 39.4092 81.0317C39.52 80.7329 39.5708 80.4149 39.5587 80.0962V75.115C39.578 74.7985 39.5352 74.4813 39.4327 74.1816C39.3301 73.8819 39.1699 73.6055 38.9612 73.3683C38.7386 73.1471 38.4727 72.975 38.1805 72.8631C37.8884 72.7511 37.5763 72.7016 37.2641 72.7178H34.4377C34.4281 72.7168 34.4184 72.7181 34.4092 72.7214C34.4001 72.7247 34.3918 72.73 34.385 72.7369C34.3781 72.7438 34.3729 72.7521 34.3696 72.7613C34.3663 72.7705 34.3651 72.7803 34.366 72.79V82.4271C34.3675 82.4436 34.3751 82.459 34.3873 82.4701C34.3995 82.4813 34.4153 82.4874 34.4318 82.4874H34.4079Z" fill="#F01967"/>
	<path d="M46.6576 83.6317C46.0034 83.3002 45.4578 82.7858 45.086 82.15C44.7018 81.481 44.5075 80.7184 44.5243 79.9456V71.3866C44.5214 71.3622 44.5241 71.3374 44.5321 71.3142C44.5401 71.291 44.5532 71.2698 44.5704 71.2524C44.5877 71.235 44.6087 71.2218 44.6317 71.2138C44.6548 71.2057 44.6794 71.203 44.7036 71.2059H46.06C46.0843 71.203 46.1088 71.2057 46.1319 71.2138C46.1549 71.2218 46.1759 71.235 46.1932 71.2524C46.2104 71.2698 46.2235 71.291 46.2315 71.3142C46.2395 71.3374 46.2422 71.3622 46.2393 71.3866V79.9817C46.2247 80.3372 46.2842 80.6918 46.4139 81.0228C46.5436 81.3537 46.7406 81.6536 46.9922 81.9031C47.2565 82.1503 47.567 82.3421 47.9055 82.4672C48.244 82.5923 48.6039 82.6483 48.9641 82.6319C49.3225 82.6484 49.6806 82.5924 50.0172 82.4672C50.3538 82.342 50.6621 82.1502 50.924 81.9031C51.1718 81.6512 51.3654 81.3507 51.4928 81.0201C51.6203 80.6896 51.6789 80.3361 51.665 79.9817V71.3866C51.6621 71.3622 51.6648 71.3374 51.6728 71.3142C51.6808 71.291 51.6939 71.2698 51.7111 71.2524C51.7284 71.235 51.7493 71.2218 51.7724 71.2138C51.7955 71.2057 51.82 71.203 51.8443 71.2059H53.2306C53.2548 71.203 53.2794 71.2057 53.3024 71.2138C53.3255 71.2218 53.3465 71.235 53.3637 71.2524C53.381 71.2698 53.3941 71.291 53.4021 71.3142C53.4101 71.3374 53.4127 71.3622 53.4098 71.3866V79.9335C53.4269 80.7048 53.237 81.4665 52.8601 82.138C52.4931 82.7734 51.9514 83.288 51.3005 83.6197C50.5703 83.9611 49.775 84.1379 48.9701 84.1379C48.1651 84.1379 47.3699 83.9611 46.6396 83.6197L46.6576 83.6317Z" fill="#F01967"/>
	<path d="M58.6085 83.7161C57.9758 83.4601 57.4285 83.0276 57.031 82.4693C56.6546 81.9149 56.4603 81.2556 56.4753 80.584V80.054C56.4753 79.9335 56.535 79.8733 56.6605 79.8733H57.9811C58.1066 79.8733 58.1663 79.9335 58.1663 80.054V80.4937C58.1638 80.7957 58.2349 81.0938 58.3735 81.3616C58.5121 81.6294 58.7139 81.8588 58.9611 82.0296C59.6096 82.4661 60.3816 82.6775 61.16 82.6319C61.8295 82.6812 62.4951 82.4938 63.0423 82.1019C63.2485 81.937 63.4136 81.7259 63.5246 81.4855C63.6356 81.245 63.6894 80.9817 63.6817 80.7165C63.6895 80.3643 63.5731 80.0206 63.353 79.7468C63.0869 79.4401 62.7643 79.1885 62.4029 79.006C61.81 78.6985 61.1994 78.427 60.5744 78.1928C59.8589 77.9253 59.1604 77.6136 58.483 77.2592C57.9811 76.9892 57.5444 76.6107 57.2043 76.151C56.8498 75.6473 56.6711 75.0393 56.6964 74.4223C56.6752 73.9524 56.7649 73.4841 56.9581 73.0558C57.1513 72.6276 57.4425 72.2517 57.8078 71.9588C58.683 71.3176 59.7511 71.0005 60.8314 71.0614C61.6414 71.0437 62.446 71.1997 63.1917 71.5191C63.8239 71.7853 64.3672 72.2284 64.7573 72.7961C65.1321 73.3579 65.3262 74.0225 65.313 74.6994V75.0668C65.313 75.1873 65.2532 75.2475 65.1277 75.2475H63.7474C63.6219 75.2475 63.5622 75.1873 63.5622 75.0668V74.7897C63.5659 74.4851 63.4999 74.1837 63.3694 73.909C63.2388 73.6343 63.0471 73.3936 62.8093 73.2056C62.2089 72.7673 61.4755 72.5543 60.7358 72.6033C60.1199 72.566 59.5084 72.7285 58.9909 73.0671C58.7913 73.2259 58.6327 73.4309 58.5287 73.6648C58.4246 73.8987 58.3782 74.1544 58.3934 74.4103C58.3767 74.7664 58.4869 75.1167 58.7041 75.3981C58.9542 75.6929 59.2666 75.9276 59.6184 76.0847C60.0247 76.2835 60.6461 76.5425 61.4767 76.8617C62.1878 77.1377 62.8839 77.4513 63.5622 77.8013C64.081 78.0793 64.5337 78.4678 64.8887 78.9397C65.2526 79.4464 65.4377 80.0613 65.4146 80.6864C65.431 81.1763 65.3312 81.6631 65.1233 82.1063C64.9154 82.5495 64.6056 82.9362 64.2195 83.2342C63.2812 83.9013 62.1445 84.2244 60.9987 84.1497C60.1814 84.1652 59.3691 84.0178 58.6085 83.7161Z" fill="#F01967"/>
	<path d="M76.5349 71.3866V72.5612C76.5378 72.5856 76.5351 72.6104 76.5271 72.6336C76.5192 72.6569 76.506 72.678 76.4888 72.6954C76.4715 72.7128 76.4506 72.726 76.4275 72.734C76.4045 72.7421 76.3799 72.7448 76.3556 72.7419H72.8719C72.8623 72.7409 72.8526 72.7422 72.8434 72.7455C72.8343 72.7488 72.826 72.7541 72.8192 72.761C72.8123 72.7679 72.8071 72.7762 72.8038 72.7854C72.8005 72.7946 72.7993 72.8044 72.8002 72.8141V83.8245C72.8002 83.945 72.7405 84.0052 72.615 84.0052H71.2406C71.1152 84.0052 71.0554 83.945 71.0554 83.8245V72.8141C71.0563 72.8044 71.0551 72.7946 71.0518 72.7854C71.0486 72.7762 71.0433 72.7679 71.0364 72.761C71.0296 72.7541 71.0213 72.7488 71.0122 72.7455C71.0031 72.7422 70.9933 72.7409 70.9837 72.7419H67.6673C67.5418 72.7419 67.4821 72.6816 67.4821 72.5612V71.3866C67.4821 71.2662 67.5418 71.2059 67.6673 71.2059H76.3556C76.3799 71.203 76.4045 71.2057 76.4275 71.2138C76.4506 71.2218 76.4715 71.235 76.4888 71.2524C76.506 71.2698 76.5192 71.291 76.5271 71.3142C76.5351 71.3374 76.5378 71.3622 76.5349 71.3866Z" fill="#F01967"/>
	<path d="M86.5319 83.8787L83.9923 78.4097C83.9882 78.3938 83.9789 78.3797 83.9659 78.3699C83.9528 78.36 83.9369 78.3549 83.9206 78.3555H81.3153C81.3056 78.3545 81.2959 78.3557 81.2868 78.359C81.2777 78.3624 81.2694 78.3676 81.2625 78.3745C81.2557 78.3815 81.2504 78.3898 81.2471 78.399C81.2439 78.4082 81.2427 78.418 81.2436 78.4277V83.8486C81.2465 83.873 81.2438 83.8978 81.2358 83.921C81.2278 83.9443 81.2147 83.9654 81.1974 83.9828C81.1802 84.0002 81.1592 84.0134 81.1362 84.0215C81.1131 84.0295 81.0885 84.0322 81.0643 84.0293H79.684C79.6597 84.0322 79.6352 84.0295 79.6121 84.0215C79.589 84.0134 79.5681 84.0002 79.5508 83.9828C79.5336 83.9654 79.5205 83.9443 79.5125 83.921C79.5045 83.8978 79.5018 83.873 79.5047 83.8486V71.3866C79.5018 71.3622 79.5045 71.3374 79.5125 71.3142C79.5205 71.291 79.5336 71.2698 79.5508 71.2524C79.5681 71.235 79.589 71.2218 79.6121 71.2138C79.6352 71.2057 79.6597 71.203 79.684 71.2059H84.5659C85.2317 71.1908 85.8902 71.3484 86.4781 71.6637C87.0173 71.9566 87.4613 72.3999 87.7568 72.9406C88.0682 73.5251 88.2246 74.1807 88.211 74.8439C88.2354 75.621 88.002 76.384 87.5477 77.0123C87.0906 77.616 86.4403 78.0416 85.7073 78.2169C85.6594 78.241 85.6475 78.2711 85.6714 78.3073L88.3006 83.7944C88.3075 83.8241 88.3075 83.855 88.3006 83.8847C88.3006 83.969 88.2528 84.0112 88.1572 84.0112H86.7231C86.6814 84.0123 86.6404 84.0001 86.6061 83.9763C86.5717 83.9525 86.5457 83.9183 86.5319 83.8787ZM81.2316 72.7961V76.9219C81.2307 76.9317 81.2319 76.9415 81.2352 76.9507C81.2385 76.9599 81.2437 76.9682 81.2506 76.9751C81.2574 76.982 81.2657 76.9873 81.2748 76.9906C81.284 76.9939 81.2937 76.9951 81.3033 76.9942H84.3329C84.6148 77.008 84.8966 76.9644 85.1614 76.8661C85.4263 76.7678 85.6688 76.6168 85.8746 76.422C86.0733 76.2222 86.229 75.9832 86.3318 75.72C86.4347 75.4567 86.4824 75.1749 86.4721 74.8921C86.4829 74.6057 86.4354 74.3201 86.3326 74.0529C86.2299 73.7857 86.074 73.5424 85.8746 73.3382C85.6727 73.1359 85.4316 72.978 85.1663 72.8744C84.9009 72.7707 84.6172 72.7235 84.3329 72.7358H81.3153C81.3058 72.7331 81.2958 72.7326 81.2861 72.7343C81.2763 72.736 81.2671 72.7398 81.2591 72.7456C81.251 72.7514 81.2444 72.759 81.2396 72.7677C81.2349 72.7764 81.2321 72.7861 81.2316 72.7961Z" fill="#F01967"/>
	<path d="M91.4317 83.8245V71.3866C91.4289 71.3622 91.4315 71.3374 91.4395 71.3142C91.4475 71.291 91.4606 71.2698 91.4779 71.2524C91.4951 71.235 91.5161 71.2218 91.5391 71.2138C91.5622 71.2057 91.5868 71.203 91.611 71.2059H92.9913C93.0156 71.203 93.0402 71.2057 93.0632 71.2138C93.0863 71.2218 93.1072 71.235 93.1245 71.2524C93.1417 71.2698 93.1549 71.291 93.1628 71.3142C93.1708 71.3374 93.1735 71.3622 93.1706 71.3866V83.8245C93.1735 83.8489 93.1708 83.8737 93.1628 83.8969C93.1549 83.9202 93.1417 83.9413 93.1245 83.9587C93.1072 83.9761 93.0863 83.9893 93.0632 83.9974C93.0402 84.0054 93.0156 84.0081 92.9913 84.0052H91.611C91.5868 84.0081 91.5622 84.0054 91.5391 83.9974C91.5161 83.9893 91.4951 83.9761 91.4779 83.9587C91.4606 83.9413 91.4475 83.9202 91.4395 83.8969C91.4315 83.8737 91.4289 83.8489 91.4317 83.8245Z" fill="#F01967"/>
	<path d="M105.217 72.7057H98.7756C98.7659 72.7048 98.7562 72.706 98.7471 72.7093C98.738 72.7126 98.7297 72.7179 98.7228 72.7248C98.716 72.7317 98.7107 72.7401 98.7075 72.7493C98.7042 72.7585 98.703 72.7683 98.7039 72.778V76.7111C98.703 76.7208 98.7042 76.7307 98.7075 76.7399C98.7107 76.749 98.716 76.7574 98.7228 76.7643C98.7297 76.7712 98.738 76.7765 98.7471 76.7798C98.7562 76.7831 98.7659 76.7843 98.7756 76.7834H103.203C103.228 76.7805 103.252 76.7832 103.275 76.7912C103.298 76.7993 103.319 76.8125 103.337 76.8299C103.354 76.8473 103.367 76.8684 103.375 76.8917C103.383 76.9149 103.386 76.9397 103.383 76.9641V78.1266C103.386 78.151 103.383 78.1758 103.375 78.199C103.367 78.2223 103.354 78.2434 103.337 78.2608C103.319 78.2782 103.298 78.2914 103.275 78.2994C103.252 78.3075 103.228 78.3102 103.203 78.3073H98.7756C98.7659 78.3063 98.7562 78.3076 98.7471 78.3109C98.738 78.3142 98.7297 78.3195 98.7228 78.3264C98.716 78.3333 98.7107 78.3416 98.7075 78.3508C98.7042 78.36 98.703 78.3698 98.7039 78.3795V82.403C98.703 82.4128 98.7042 82.4226 98.7075 82.4317C98.7107 82.4409 98.716 82.4493 98.7228 82.4562C98.7297 82.4631 98.738 82.4684 98.7471 82.4717C98.7562 82.475 98.7659 82.4762 98.7756 82.4753H105.217C105.337 82.4753 105.396 82.5355 105.396 82.662V83.8124C105.399 83.8369 105.397 83.8616 105.389 83.8849C105.381 83.9081 105.368 83.9293 105.35 83.9466C105.333 83.964 105.312 83.9773 105.289 83.9853C105.266 83.9934 105.241 83.996 105.217 83.9931H97.1443C97.0188 83.9931 96.959 83.9329 96.959 83.8124V71.3866C96.959 71.2662 97.0188 71.2059 97.1443 71.2059H105.217C105.241 71.203 105.266 71.2057 105.289 71.2138C105.312 71.2218 105.333 71.235 105.35 71.2524C105.368 71.2698 105.381 71.291 105.389 71.3142C105.397 71.3374 105.399 71.3622 105.396 71.3866V72.5431C105.397 72.5661 105.392 72.5888 105.383 72.6098C105.373 72.6308 105.36 72.6496 105.343 72.665C105.326 72.6803 105.306 72.6919 105.284 72.6989C105.263 72.706 105.24 72.7083 105.217 72.7057Z" fill="#F01967"/>
	<path d="M108.623 83.8245V71.3866C108.62 71.3616 108.623 71.3363 108.631 71.3125C108.639 71.2887 108.653 71.2673 108.671 71.2497C108.689 71.2322 108.711 71.2191 108.735 71.2115C108.758 71.2039 108.784 71.202 108.808 71.2059H110.189C110.213 71.203 110.238 71.2057 110.261 71.2138C110.284 71.2218 110.305 71.235 110.322 71.2524C110.339 71.2698 110.352 71.291 110.36 71.3142C110.368 71.3374 110.371 71.3622 110.368 71.3866V82.4151C110.367 82.4248 110.368 82.4346 110.372 82.4438C110.375 82.453 110.38 82.4613 110.387 82.4682C110.394 82.4752 110.402 82.4804 110.411 82.4837C110.42 82.487 110.43 82.4883 110.44 82.4874H116.696C116.721 82.4832 116.747 82.4851 116.772 82.4931C116.796 82.501 116.818 82.5146 116.836 82.5329C116.854 82.5511 116.868 82.5734 116.876 82.598C116.883 82.6225 116.885 82.6486 116.881 82.6741V83.8245C116.881 83.945 116.821 84.0052 116.696 84.0052H108.802C108.778 84.0081 108.754 84.0054 108.731 83.9974C108.707 83.9893 108.687 83.9761 108.669 83.9587C108.652 83.9413 108.639 83.9202 108.631 83.8969C108.623 83.8737 108.62 83.8489 108.623 83.8245Z" fill="#F01967"/>
	<path d="M119.779 83.8245V71.3866C119.776 71.3616 119.779 71.3363 119.787 71.3125C119.796 71.2887 119.809 71.2673 119.827 71.2497C119.845 71.2322 119.867 71.2191 119.891 71.2115C119.915 71.2039 119.94 71.202 119.965 71.2059H121.351C121.375 71.203 121.4 71.2057 121.423 71.2138C121.446 71.2218 121.467 71.235 121.484 71.2524C121.501 71.2698 121.514 71.291 121.522 71.3142C121.53 71.3374 121.533 71.3622 121.53 71.3866V82.4151C121.529 82.4248 121.53 82.4346 121.534 82.4438C121.537 82.453 121.542 82.4613 121.549 82.4682C121.556 82.4752 121.564 82.4804 121.573 82.4837C121.582 82.487 121.592 82.4883 121.602 82.4874H127.858C127.883 82.4832 127.909 82.4851 127.934 82.4931C127.958 82.501 127.98 82.5146 127.998 82.5329C128.016 82.5511 128.03 82.5734 128.038 82.598C128.046 82.6225 128.048 82.6486 128.043 82.6741V83.8245C128.043 83.945 127.984 84.0052 127.858 84.0052H119.971C119.945 84.0102 119.919 84.0091 119.895 84.002C119.87 83.9949 119.848 83.9819 119.829 83.9643C119.81 83.9466 119.796 83.9247 119.787 83.9004C119.779 83.8761 119.776 83.8501 119.779 83.8245Z" fill="#F01967"/>
	<path d="M139.194 72.7057H132.752C132.742 72.7048 132.733 72.706 132.724 72.7093C132.714 72.7126 132.706 72.7179 132.699 72.7248C132.692 72.7317 132.687 72.7401 132.684 72.7493C132.681 72.7585 132.679 72.7683 132.68 72.778V76.7111C132.679 76.7208 132.681 76.7307 132.684 76.7399C132.687 76.749 132.692 76.7574 132.699 76.7643C132.706 76.7712 132.714 76.7765 132.724 76.7798C132.733 76.7831 132.742 76.7843 132.752 76.7834H137.18C137.204 76.7805 137.229 76.7832 137.252 76.7912C137.275 76.7993 137.296 76.8125 137.313 76.8299C137.33 76.8473 137.343 76.8684 137.351 76.8917C137.359 76.9149 137.362 76.9397 137.359 76.9641V78.1266C137.362 78.151 137.359 78.1758 137.351 78.199C137.343 78.2223 137.33 78.2434 137.313 78.2608C137.296 78.2782 137.275 78.2914 137.252 78.2994C137.229 78.3075 137.204 78.3102 137.18 78.3073H132.752C132.742 78.3063 132.733 78.3076 132.724 78.3109C132.714 78.3142 132.706 78.3195 132.699 78.3264C132.692 78.3333 132.687 78.3416 132.684 78.3508C132.681 78.36 132.679 78.3698 132.68 78.3795V82.403C132.679 82.4128 132.681 82.4226 132.684 82.4317C132.687 82.4409 132.692 82.4493 132.699 82.4562C132.706 82.4631 132.714 82.4684 132.724 82.4717C132.733 82.475 132.742 82.4762 132.752 82.4753H139.194C139.313 82.4753 139.373 82.5355 139.373 82.662V83.8124C139.376 83.8369 139.373 83.8616 139.365 83.8849C139.357 83.9081 139.344 83.9293 139.327 83.9466C139.31 83.964 139.289 83.9773 139.266 83.9853C139.242 83.9934 139.218 83.996 139.194 83.9931H131.121C131.097 83.996 131.072 83.9934 131.049 83.9853C131.026 83.9773 131.005 83.964 130.988 83.9466C130.97 83.9293 130.957 83.9081 130.949 83.8849C130.941 83.8616 130.939 83.8369 130.942 83.8124V71.3866C130.939 71.3622 130.941 71.3374 130.949 71.3142C130.957 71.291 130.97 71.2698 130.988 71.2524C131.005 71.235 131.026 71.2218 131.049 71.2138C131.072 71.2057 131.097 71.203 131.121 71.2059H139.194C139.218 71.203 139.242 71.2057 139.266 71.2138C139.289 71.2218 139.31 71.235 139.327 71.2524C139.344 71.2698 139.357 71.291 139.365 71.3142C139.373 71.3374 139.376 71.3622 139.373 71.3866V72.5431C139.373 72.5661 139.368 72.5888 139.359 72.6098C139.35 72.6308 139.336 72.6496 139.32 72.665C139.303 72.6803 139.283 72.6919 139.261 72.6989C139.239 72.706 139.216 72.7083 139.194 72.7057Z" fill="#F01967"/>
	<path d="M159.152 72.7057H152.71C152.701 72.7048 152.691 72.706 152.682 72.7093C152.673 72.7126 152.664 72.7179 152.657 72.7248C152.651 72.7317 152.645 72.7401 152.642 72.7493C152.639 72.7585 152.638 72.7683 152.638 72.778V76.7111C152.638 76.7208 152.639 76.7307 152.642 76.7399C152.645 76.749 152.651 76.7574 152.657 76.7643C152.664 76.7712 152.673 76.7765 152.682 76.7798C152.691 76.7831 152.701 76.7843 152.71 76.7834H157.138C157.162 76.7805 157.187 76.7832 157.21 76.7912C157.233 76.7993 157.254 76.8125 157.271 76.8299C157.288 76.8473 157.301 76.8684 157.309 76.8917C157.317 76.9149 157.32 76.9397 157.317 76.9641V78.1266C157.32 78.151 157.317 78.1758 157.309 78.199C157.301 78.2223 157.288 78.2434 157.271 78.2608C157.254 78.2782 157.233 78.2914 157.21 78.2994C157.187 78.3075 157.162 78.3102 157.138 78.3073H152.71C152.701 78.3063 152.691 78.3076 152.682 78.3109C152.673 78.3142 152.664 78.3195 152.657 78.3264C152.651 78.3333 152.645 78.3416 152.642 78.3508C152.639 78.36 152.638 78.3698 152.638 78.3795V82.403C152.638 82.4128 152.639 82.4226 152.642 82.4317C152.645 82.4409 152.651 82.4493 152.657 82.4562C152.664 82.4631 152.673 82.4684 152.682 82.4717C152.691 82.475 152.701 82.4762 152.71 82.4753H159.152C159.271 82.4753 159.331 82.5355 159.331 82.662V83.8124C159.334 83.8369 159.331 83.8616 159.323 83.8849C159.315 83.9081 159.302 83.9293 159.285 83.9466C159.268 83.964 159.247 83.9773 159.224 83.9853C159.201 83.9934 159.176 83.996 159.152 83.9931H151.073C151.049 83.996 151.024 83.9934 151.001 83.9853C150.978 83.9773 150.957 83.964 150.94 83.9466C150.922 83.9293 150.909 83.9081 150.901 83.8849C150.893 83.8616 150.891 83.8369 150.894 83.8124V71.3866C150.891 71.3622 150.893 71.3374 150.901 71.3142C150.909 71.291 150.922 71.2698 150.94 71.2524C150.957 71.235 150.978 71.2218 151.001 71.2138C151.024 71.2057 151.049 71.203 151.073 71.2059H159.152C159.176 71.203 159.201 71.2057 159.224 71.2138C159.247 71.2218 159.268 71.235 159.285 71.2524C159.302 71.2698 159.315 71.291 159.323 71.3142C159.331 71.3374 159.334 71.3622 159.331 71.3866V72.5431C159.331 72.5661 159.326 72.5888 159.317 72.6098C159.308 72.6308 159.294 72.6496 159.278 72.665C159.261 72.6803 159.241 72.6919 159.219 72.6989C159.197 72.706 159.174 72.7083 159.152 72.7057ZM154.132 69.9531C154.115 69.9308 154.105 69.9032 154.105 69.8748C154.105 69.8464 154.115 69.8188 154.132 69.7965L155.202 67.8209C155.22 67.7794 155.25 67.7447 155.289 67.7219C155.328 67.6991 155.372 67.6895 155.417 67.6944H156.612C156.69 67.6944 156.732 67.6944 156.75 67.7607C156.762 67.785 156.768 67.8118 156.768 67.839C156.768 67.8662 156.762 67.893 156.75 67.9173L155.459 69.8929C155.436 69.9303 155.405 69.9614 155.367 69.9834C155.33 70.0055 155.287 70.0179 155.244 70.0194H154.282C154.255 70.0233 154.227 70.021 154.202 70.0126C154.176 70.0043 154.152 69.9901 154.132 69.9712V69.9531Z" fill="#F01967"/>
	<path d="M162.582 83.8245V71.3866C162.582 71.2662 162.641 71.2059 162.767 71.2059H164.141C164.166 71.202 164.191 71.2039 164.215 71.2115C164.239 71.2191 164.261 71.2322 164.279 71.2497C164.297 71.2673 164.31 71.2887 164.319 71.3125C164.327 71.3363 164.33 71.3616 164.326 71.3866V82.4151C164.326 82.4248 164.327 82.4346 164.33 82.4438C164.333 82.453 164.339 82.4613 164.345 82.4682C164.352 82.4752 164.361 82.4804 164.37 82.4837C164.379 82.487 164.389 82.4883 164.398 82.4874H170.654C170.68 82.4845 170.705 82.4873 170.729 82.4957C170.752 82.504 170.774 82.5177 170.792 82.5356C170.81 82.5536 170.823 82.5754 170.831 82.5993C170.84 82.6233 170.843 82.6488 170.84 82.6741V83.8245C170.843 83.8495 170.84 83.8749 170.832 83.8986C170.823 83.9224 170.81 83.9439 170.792 83.9614C170.774 83.9789 170.752 83.992 170.728 83.9996C170.704 84.0072 170.679 84.0091 170.654 84.0052H162.767C162.617 84.0052 162.582 83.945 162.582 83.8245Z" fill="#F01967"/>
	<path d="M181.972 72.7057H175.53C175.521 72.7048 175.511 72.706 175.502 72.7093C175.493 72.7126 175.485 72.7179 175.478 72.7248C175.471 72.7317 175.466 72.7401 175.462 72.7493C175.459 72.7585 175.458 72.7683 175.459 72.778V76.7111C175.458 76.7208 175.459 76.7307 175.462 76.7399C175.466 76.749 175.471 76.7574 175.478 76.7643C175.485 76.7712 175.493 76.7765 175.502 76.7798C175.511 76.7831 175.521 76.7843 175.53 76.7834H179.958C179.983 76.7805 180.007 76.7832 180.03 76.7912C180.053 76.7993 180.074 76.8125 180.091 76.8299C180.109 76.8473 180.122 76.8684 180.13 76.8917C180.138 76.9149 180.14 76.9397 180.138 76.9641V78.1266C180.14 78.151 180.138 78.1758 180.13 78.199C180.122 78.2223 180.109 78.2434 180.091 78.2608C180.074 78.2782 180.053 78.2914 180.03 78.2994C180.007 78.3075 179.983 78.3102 179.958 78.3073H175.53C175.521 78.3063 175.511 78.3076 175.502 78.3109C175.493 78.3142 175.485 78.3195 175.478 78.3264C175.471 78.3333 175.466 78.3416 175.462 78.3508C175.459 78.36 175.458 78.3698 175.459 78.3795V82.403C175.458 82.4128 175.459 82.4226 175.462 82.4317C175.466 82.4409 175.471 82.4493 175.478 82.4562C175.485 82.4631 175.493 82.4684 175.502 82.4717C175.511 82.475 175.521 82.4762 175.53 82.4753H181.972C182.092 82.4753 182.151 82.5355 182.151 82.662V83.8124C182.154 83.8369 182.152 83.8616 182.144 83.8849C182.136 83.9081 182.122 83.9293 182.105 83.9466C182.088 83.964 182.067 83.9773 182.044 83.9853C182.021 83.9934 181.996 83.996 181.972 83.9931H173.899C173.774 83.9931 173.714 83.9329 173.714 83.8124V71.3866C173.714 71.2662 173.774 71.2059 173.899 71.2059H181.972C181.996 71.203 182.021 71.2057 182.044 71.2138C182.067 71.2218 182.088 71.235 182.105 71.2524C182.122 71.2698 182.136 71.291 182.144 71.3142C182.152 71.3374 182.154 71.3622 182.151 71.3866V72.5431C182.151 72.5661 182.147 72.5888 182.138 72.6098C182.128 72.6308 182.115 72.6496 182.098 72.665C182.081 72.6803 182.061 72.6919 182.039 72.6989C182.018 72.706 181.995 72.7083 181.972 72.7057Z" fill="#F01967"/>
	<path d="M187.147 83.6498C186.496 83.3181 185.954 82.8035 185.587 82.1681C185.21 81.4966 185.02 80.735 185.037 79.9636V75.2294C185.02 74.4638 185.21 73.708 185.587 73.043C185.958 72.4156 186.499 71.9079 187.147 71.5794C187.866 71.225 188.659 71.0475 189.459 71.0614C190.256 71.0455 191.046 71.2166 191.766 71.5613C192.407 71.8744 192.945 72.3682 193.313 72.9828C193.693 73.6227 193.885 74.3576 193.869 75.1029C193.871 75.1295 193.867 75.156 193.857 75.1809C193.848 75.2058 193.834 75.2284 193.815 75.2475C193.799 75.2646 193.78 75.2783 193.758 75.2876C193.737 75.2969 193.713 75.3017 193.69 75.3017L192.31 75.374C192.19 75.374 192.13 75.3198 192.13 75.2114V75.1572C192.145 74.8091 192.088 74.4618 191.962 74.1372C191.837 73.8127 191.646 73.518 191.401 73.2719C191.141 73.0288 190.835 72.8407 190.502 72.7186C190.168 72.5966 189.814 72.543 189.459 72.5612C189.104 72.5439 188.749 72.5978 188.415 72.7198C188.08 72.8418 187.773 73.0295 187.511 73.2719C187.265 73.5168 187.072 73.8112 186.945 74.1359C186.819 74.4606 186.761 74.8086 186.776 75.1572V80.0178C186.761 80.3664 186.819 80.7143 186.945 81.0391C187.072 81.3638 187.265 81.6582 187.511 81.9031C187.773 82.1455 188.08 82.3332 188.415 82.4552C188.749 82.5771 189.104 82.6311 189.459 82.6138C189.814 82.632 190.168 82.5784 190.502 82.4564C190.835 82.3343 191.141 82.1462 191.401 81.9031C191.646 81.657 191.837 81.3623 191.962 81.0377C192.088 80.7132 192.145 80.3659 192.13 80.0178V79.9817C192.13 79.8733 192.19 79.8191 192.31 79.8191L193.69 79.8914C193.809 79.8914 193.869 79.9516 193.869 80.0781C193.884 80.8251 193.691 81.5614 193.313 82.2043C192.945 82.8222 192.408 83.32 191.766 83.6378C191.042 83.9771 190.254 84.153 189.456 84.153C188.658 84.153 187.87 83.9771 187.147 83.6378V83.6498Z" fill="#F01967"/>
	<path d="M205.3 71.3866V72.5612C205.3 72.6816 205.24 72.7419 205.115 72.7419H201.631C201.622 72.7409 201.612 72.7422 201.603 72.7455C201.594 72.7488 201.585 72.7541 201.579 72.761C201.572 72.7679 201.566 72.7762 201.563 72.7854C201.56 72.7946 201.559 72.8044 201.56 72.8141V83.8245C201.562 83.8489 201.56 83.8737 201.552 83.8969C201.544 83.9202 201.531 83.9413 201.513 83.9587C201.496 83.9761 201.475 83.9893 201.452 83.9974C201.429 84.0054 201.405 84.0081 201.38 84.0052H200C199.976 84.0081 199.951 84.0054 199.928 83.9974C199.905 83.9893 199.884 83.9761 199.867 83.9587C199.85 83.9413 199.836 83.9202 199.828 83.8969C199.82 83.8737 199.818 83.8489 199.821 83.8245V72.8141C199.822 72.8044 199.82 72.7946 199.817 72.7854C199.814 72.7762 199.809 72.7679 199.802 72.761C199.795 72.7541 199.787 72.7488 199.777 72.7455C199.768 72.7422 199.759 72.7409 199.749 72.7419H196.427C196.402 72.7448 196.378 72.7421 196.355 72.734C196.332 72.726 196.311 72.7128 196.294 72.6954C196.276 72.678 196.263 72.6569 196.255 72.6336C196.247 72.6104 196.245 72.5856 196.247 72.5612V71.3866C196.245 71.3622 196.247 71.3374 196.255 71.3142C196.263 71.291 196.276 71.2698 196.294 71.2524C196.311 71.235 196.332 71.2218 196.355 71.2138C196.378 71.2057 196.402 71.203 196.427 71.2059H205.115C205.24 71.2059 205.3 71.2662 205.3 71.3866Z" fill="#F01967"/>
	<path d="M215.315 83.8787L212.776 78.4097C212.77 78.3938 212.759 78.3801 212.745 78.3704C212.731 78.3608 212.715 78.3555 212.698 78.3555H210.087C210.077 78.3545 210.067 78.3557 210.058 78.359C210.049 78.3624 210.041 78.3676 210.034 78.3745C210.027 78.3815 210.022 78.3898 210.018 78.399C210.015 78.4082 210.014 78.418 210.015 78.4277V83.8486C210.018 83.873 210.015 83.8978 210.007 83.921C209.999 83.9443 209.986 83.9654 209.969 83.9828C209.951 84.0002 209.931 84.0134 209.907 84.0215C209.884 84.0295 209.86 84.0322 209.836 84.0293H208.455C208.431 84.0322 208.406 84.0295 208.383 84.0215C208.36 84.0134 208.339 84.0002 208.322 83.9828C208.305 83.9654 208.292 83.9443 208.284 83.921C208.276 83.8978 208.273 83.873 208.276 83.8486V71.3866C208.273 71.3622 208.276 71.3374 208.284 71.3142C208.292 71.291 208.305 71.2698 208.322 71.2524C208.339 71.235 208.36 71.2218 208.383 71.2138C208.406 71.2057 208.431 71.203 208.455 71.2059H213.337C214.003 71.1908 214.661 71.3484 215.249 71.6637C215.787 71.9582 216.231 72.4011 216.528 72.9406C216.837 73.5262 216.993 74.181 216.982 74.8439C217.007 75.621 216.773 76.384 216.319 77.0123C215.861 77.6145 215.211 78.0398 214.479 78.2169C214.431 78.241 214.419 78.2711 214.443 78.3073L217.072 83.7944C217.079 83.8241 217.079 83.855 217.072 83.8847C217.072 83.969 217.024 84.0112 216.928 84.0112H215.494C215.455 84.0099 215.416 83.9965 215.384 83.9728C215.352 83.9492 215.328 83.9164 215.315 83.8787ZM210.015 72.7961V76.9219C210.014 76.9317 210.015 76.9415 210.018 76.9507C210.022 76.9599 210.027 76.9682 210.034 76.9751C210.041 76.982 210.049 76.9873 210.058 76.9906C210.067 76.9939 210.077 76.9951 210.087 76.9942H213.116C213.398 77.007 213.679 76.9629 213.944 76.8647C214.209 76.7664 214.451 76.6159 214.658 76.422C214.857 76.2222 215.012 75.9832 215.115 75.72C215.218 75.4567 215.266 75.1749 215.255 74.8921C215.274 74.6065 215.232 74.3202 215.132 74.0524C215.031 73.7845 214.876 73.5413 214.675 73.3389C214.474 73.1365 214.233 72.9796 213.967 72.8787C213.701 72.7779 213.417 72.7353 213.134 72.7539H210.087C210.072 72.7515 210.056 72.7544 210.043 72.7621C210.03 72.7698 210.02 72.7818 210.015 72.7961Z" fill="#F01967"/>
	<path d="M220.209 83.8245V71.3866C220.206 71.3622 220.209 71.3374 220.217 71.3142C220.225 71.291 220.238 71.2698 220.255 71.2524C220.272 71.235 220.293 71.2218 220.316 71.2138C220.339 71.2057 220.364 71.203 220.388 71.2059H221.769C221.793 71.202 221.819 71.2039 221.842 71.2115C221.866 71.2191 221.888 71.2322 221.906 71.2497C221.924 71.2673 221.938 71.2887 221.946 71.3125C221.954 71.3363 221.957 71.3616 221.954 71.3866V83.8245C221.957 83.8495 221.954 83.8749 221.946 83.8986C221.938 83.9224 221.924 83.9439 221.906 83.9614C221.888 83.9789 221.866 83.992 221.842 83.9996C221.819 84.0072 221.793 84.0091 221.769 84.0052H220.388C220.364 84.0081 220.339 84.0054 220.316 83.9974C220.293 83.9893 220.272 83.9761 220.255 83.9587C220.238 83.9413 220.225 83.9202 220.217 83.8969C220.209 83.8737 220.206 83.8489 220.209 83.8245Z" fill="#F01967"/>
	<path d="M231.801 71.5975C232.44 71.9473 232.968 72.4712 233.325 73.1093C233.699 73.7971 233.886 74.5719 233.869 75.3559V79.9636C233.902 80.9603 233.578 81.9356 232.955 82.7102C232.323 83.452 231.442 83.9325 230.481 84.0594C230.47 84.0602 230.459 84.0631 230.449 84.0681C230.439 84.073 230.431 84.0799 230.423 84.0883C230.416 84.0967 230.411 84.1064 230.407 84.117C230.404 84.1275 230.402 84.1387 230.403 84.1497V85.8182C230.406 85.8426 230.403 85.8674 230.395 85.8906C230.387 85.9139 230.374 85.935 230.357 85.9524C230.34 85.9698 230.319 85.983 230.296 85.991C230.273 85.9991 230.248 86.0018 230.224 85.9989H228.844C228.819 86.0018 228.795 85.9991 228.772 85.991C228.749 85.983 228.728 85.9698 228.71 85.9524C228.693 85.935 228.68 85.9139 228.672 85.8906C228.664 85.8674 228.661 85.8426 228.664 85.8182V84.1497C228.666 84.1283 228.66 84.107 228.646 84.0902C228.633 84.0734 228.614 84.0624 228.593 84.0594C227.63 83.9312 226.747 83.4511 226.113 82.7102C225.49 81.9356 225.165 80.9603 225.199 79.9636V75.3559C225.181 74.5719 225.369 73.7971 225.742 73.1093C226.099 72.4712 226.627 71.9473 227.266 71.5975C227.971 71.245 228.747 71.0617 229.534 71.0617C230.32 71.0617 231.097 71.245 231.801 71.5975ZM232.13 75.2656C232.146 74.9094 232.091 74.5537 231.967 74.2195C231.844 73.8853 231.656 73.5795 231.413 73.3201C230.901 72.8443 230.23 72.5802 229.534 72.5802C228.837 72.5802 228.166 72.8443 227.654 73.3201C227.413 73.5797 227.225 73.8858 227.103 74.22C226.981 74.5542 226.926 74.9098 226.943 75.2656V79.9335C226.927 80.2902 226.981 80.6466 227.103 80.9818C227.225 81.317 227.413 81.6241 227.654 81.885C228.168 82.3582 228.838 82.6207 229.534 82.6207C230.229 82.6207 230.9 82.3582 231.413 81.885C231.656 81.6246 231.844 81.3177 231.968 80.9825C232.091 80.6473 232.146 80.2906 232.13 79.9335V75.2656Z" fill="#F01967"/>
	<path d="M239.121 83.6317C238.468 83.2985 237.923 82.7845 237.55 82.15C237.169 81.4796 236.975 80.718 236.988 79.9456V71.3866C236.988 71.2662 237.048 71.2059 237.173 71.2059H238.548C238.673 71.2059 238.733 71.2662 238.733 71.3866V79.9817C238.718 80.3372 238.778 80.6918 238.908 81.0228C239.037 81.3537 239.234 81.6536 239.486 81.9031C239.749 82.1499 240.059 82.3414 240.396 82.4665C240.734 82.5916 241.093 82.6478 241.452 82.6319C241.81 82.6487 242.168 82.5929 242.505 82.4677C242.842 82.3425 243.15 82.1505 243.412 81.9031C243.661 81.6521 243.855 81.3517 243.983 81.0209C244.11 80.6901 244.168 80.3363 244.153 79.9817V71.3866C244.15 71.3616 244.152 71.3363 244.161 71.3125C244.169 71.2887 244.183 71.2673 244.201 71.2497C244.219 71.2322 244.24 71.2191 244.264 71.2115C244.288 71.2039 244.313 71.202 244.338 71.2059H245.718C245.743 71.203 245.767 71.2057 245.79 71.2138C245.813 71.2218 245.834 71.235 245.851 71.2524C245.869 71.2698 245.882 71.291 245.89 71.3142C245.898 71.3374 245.9 71.3622 245.898 71.3866V79.9335C245.913 80.7054 245.721 81.4671 245.342 82.138C244.978 82.7758 244.435 83.2912 243.782 83.6197C243.052 83.9611 242.257 84.1379 241.452 84.1379C240.647 84.1379 239.852 83.9611 239.121 83.6197V83.6317Z" fill="#F01967"/>
	<path d="M257.813 72.7057H251.377C251.367 72.7048 251.358 72.706 251.349 72.7093C251.339 72.7126 251.331 72.7179 251.324 72.7248C251.317 72.7317 251.312 72.7401 251.309 72.7493C251.306 72.7585 251.304 72.7683 251.305 72.778V76.7111C251.304 76.7208 251.306 76.7307 251.309 76.7399C251.312 76.749 251.317 76.7574 251.324 76.7643C251.331 76.7712 251.339 76.7765 251.349 76.7798C251.358 76.7831 251.367 76.7843 251.377 76.7834H255.799C255.924 76.7834 255.984 76.8436 255.984 76.9641V78.1266C255.984 78.247 255.924 78.3073 255.799 78.3073H251.377C251.367 78.3063 251.358 78.3076 251.349 78.3109C251.339 78.3142 251.331 78.3195 251.324 78.3264C251.317 78.3333 251.312 78.3416 251.309 78.3508C251.306 78.36 251.304 78.3698 251.305 78.3795V82.403C251.304 82.4128 251.306 82.4226 251.309 82.4317C251.312 82.4409 251.317 82.4493 251.324 82.4562C251.331 82.4631 251.339 82.4684 251.349 82.4717C251.358 82.475 251.367 82.4762 251.377 82.4753H257.813C257.838 82.4711 257.864 82.4731 257.888 82.481C257.912 82.4889 257.935 82.5026 257.953 82.5208C257.971 82.539 257.984 82.5614 257.992 82.5859C258 82.6105 258.002 82.6366 257.998 82.662V83.8124C257.998 83.9329 257.938 83.9931 257.813 83.9931H249.74C249.716 83.996 249.691 83.9934 249.668 83.9853C249.645 83.9773 249.624 83.964 249.607 83.9466C249.589 83.9293 249.576 83.9081 249.568 83.8849C249.56 83.8616 249.558 83.8369 249.561 83.8124V71.3866C249.558 71.3622 249.56 71.3374 249.568 71.3142C249.576 71.291 249.589 71.2698 249.607 71.2524C249.624 71.235 249.645 71.2218 249.668 71.2138C249.691 71.2057 249.716 71.203 249.74 71.2059H257.813C257.938 71.2059 257.998 71.2662 257.998 71.3866V72.5431C257.998 72.6636 257.938 72.7057 257.813 72.7057Z" fill="#F01967"/>
</svg>
